# xmcd
#
# Track frame offsets: 
#        150
#        10803
#        19887
#        27884
#        42601
#        57065
#        71501
#        85442
#        101553
#        113482
#        128504
#        140043
#        150451
#        164434
#        178938
#        190147
#        202534
#
# Disc length: 2887 seconds
#
# Revision: 1
# Processed by: cddbd v1.5.2PL0 Copyright (c) Steve Scherf et al.
# Submitted via: ExactAudioCopy v0.99pb5
#
DISCID=db0b4511
DTITLE=Mel Tormé - Oh, You Beautiful Doll
DYEAR=1949
DGENRE=Smooth Jazz
TTITLE0=How High the Moon
TTITLE1=Three Little Words
TTITLE2=Love Me or Leave Me
TTITLE3=Careless Hands
TTITLE4=Blue Moon
TTITLE5=Again
TTITLE6=The Four Winds and the Seven Seas
TTITLE7=Got the Gate on the Golden Gate
TTITLE8=Cross Your Heart
TTITLE9=Bewitched
TTITLE10=Stompin' at the Savoy
TTITLE11=Oh, You Beautiful Doll
TTITLE12=You're Getting to Be a Habit with Me
TTITLE13=It's Too Late Now
TTITLE14=Do Do Do
TTITLE15=Sonny Boy
TTITLE16=I Had'nt Anyone till You
EXTD=
EXTT0=
EXTT1=
EXTT2=
EXTT3=
EXTT4=
EXTT5=
EXTT6=
EXTT7=
EXTT8=
EXTT9=
EXTT10=
EXTT11=
EXTT12=
EXTT13=
EXTT14=
EXTT15=
EXTT16=
PLAYORDER=
